# xmcd
#
# Track frame offsets: 
#        150
#        31634
#        60028
#        95865
#        103626
#        110358
#        134871
#        139386
#        145102
#        154179
#        167827
#        188268
#        211002
#        236443
#        244317
#        275696
#
# Disc length: 3848 seconds
#
# Revision: 0
# Processed by: cddbd v1.5.2PL0 Copyright (c) Steve Scherf et al.
# Submitted via: ExactAudioCopy v0.95b3
#
DISCID=de0f0610
DTITLE=Led Zeppelin  - Studio Sessions Ultimate [Disc 1] 
DYEAR=1900
DGENRE=
TTITLE0=Babe Im Gonna Leave You (Take 8)
TTITLE1=Babe Im Gonna Leave You (Take 9)
TTITLE2=You Shook Me (Take 1)
TTITLE3=Babe Come On Home (Take 1)
TTITLE4=Babe Come On Home (Take 2)
TTITLE5=Babe Come On Home (Take 3)
TTITLE6=Untitled Instrumental (Take 1)
TTITLE7=Untitled Instrumental (Take 2)
TTITLE8=Untitled Instrumental (Take 3)
TTITLE9=Untitled Instrumental (Take 4)
TTITLE10=Untitled Instrumental (Take 5)
TTITLE11=Untitled Instrumental (Take 6)
TTITLE12=Untitled Instrumental (Take 7)
TTITLE13=Moby Dick
TTITLE14=Moby Dick (drum insert take 1)
TTITLE15=Sugar Mama
EXTD=
EXTT0=
EXTT1=
EXTT2=
EXTT3=
EXTT4=
EXTT5=
EXTT6=
EXTT7=
EXTT8=
EXTT9=
EXTT10=
EXTT11=
EXTT12=
EXTT13=
EXTT14=
EXTT15=
PLAYORDER=
